<svg xmlns="http://www.w3.org/2000/svg" xmlns:v="https://svgstorm.com"
viewBox = "0 0 100 100"
width="100"
height="100">
<g fill="None" fill-opacity="0.0" stroke="#FBFBFA" stroke-opacity="0.81" stroke-width="0.3"><path d="
M 0.00 20.00 
C 6.11 26.19 -2.63 42.47 5.00 48.00
C 6.41 49.02 8.28 47.95 9.00 52.00
C 10.06 49.67 8.31 48.10 9.00 46.00
C 5.42 47.21 3.33 45.47 4.00 43.00
C 4.46 41.30 5.82 40.95 6.00 39.00
C 6.05 38.50 6.00 38.00 6.00 38.00
C 7.36 25.45 1.00 12.68 2.00 0.00
L 0.00 0.00
L 0.00 20.00 Z"/>
</g>
<g fill="None" fill-opacity="0.0" stroke="#000000" stroke-opacity="0.00" stroke-width="0.3"><path d="
M 6.00 38.00 
C 6.37 37.30 7.46 36.61 8.00 36.00
C 8.51 35.42 9.57 34.62 10.00 34.00
C 10.94 32.63 13.57 30.71 14.00 30.00
C 14.16 28.68 13.31 28.17 13.00 27.00
C 15.21 27.29 15.26 23.93 18.00 25.00
C 18.50 24.97 19.00 25.00 19.00 25.00
C 18.91 23.63 19.14 23.74 20.00 23.00
C 21.40 20.29 22.92 18.87 25.00 17.00
C 25.58 15.51 27.15 15.82 28.00 15.00
C 30.72 12.37 30.27 10.15 35.00 10.00
C 35.50 9.98 36.50 10.03 37.00 10.00
C 38.42 9.03 37.22 8.40 40.00 8.00
C 41.57 7.77 43.47 8.43 45.00 8.00
C 45.22 7.74 45.74 7.21 46.00 7.00
C 47.72 5.65 50.63 5.28 53.00 5.00
C 53.49 4.94 54.50 5.00 55.00 5.00
C 55.50 5.00 56.00 5.00 56.00 5.00
C 56.37 2.88 56.88 3.15 59.00 3.00
C 59.99 2.93 61.01 3.00 62.00 3.00
C 62.50 3.00 63.50 3.00 64.00 3.00
C 63.38 0.42 66.53 1.16 68.00 1.00
C 68.30 0.78 68.84 0.34 69.00 0.00
L 2.00 0.00
C 1.00 12.68 7.36 25.45 6.00 38.00 Z"/>
</g>
<g fill="None" fill-opacity="0.0" stroke="#9A979F" stroke-opacity="0.75" stroke-width="0.3"><path d="
M 68.00 1.00 
C 67.15 1.61 65.91 2.50 65.00 3.00
C 66.62 3.00 68.40 3.21 70.00 3.00
C 71.21 2.61 72.16 1.20 71.00 0.00
L 69.00 0.00
C 68.84 0.34 68.30 0.78 68.00 1.00 Z"/>
</g>
<g fill="None" fill-opacity="0.0" stroke="#6A6873" stroke-opacity="0.69" stroke-width="0.3"><path d="
M 70.00 3.00 
C 71.55 2.80 73.75 2.03 75.00 1.00
C 75.25 0.80 75.00 0.00 75.00 0.00
L 71.00 0.00
C 72.16 1.20 71.21 2.61 70.00 3.00 Z"/>
</g>
<g fill="None" fill-opacity="0.0" stroke="#828189" stroke-opacity="0.94" stroke-width="0.3"><path d="
M 75.00 1.00 
C 75.48 1.29 78.44 1.17 79.00 1.00
C 79.35 0.89 79.84 0.34 80.00 0.00
L 75.00 0.00
C 75.00 0.00 75.25 0.80 75.00 1.00 Z"/>
</g>
<g fill="None" fill-opacity="0.0" stroke="#C0BFC3" stroke-opacity="0.60" stroke-width="0.3"><path d="
M 79.00 1.00 
C 78.82 1.42 79.11 2.52 79.00 3.00
C 78.85 3.66 77.44 5.60 77.00 6.00
C 77.64 5.25 79.48 4.72 80.00 4.00
C 80.61 2.71 81.34 1.57 81.00 0.00
L 80.00 0.00
C 79.84 0.34 79.35 0.89 79.00 1.00 Z"/>
</g>
<g fill="None" fill-opacity="0.0" stroke="#000000" stroke-opacity="0.00" stroke-width="0.3"><path d="
M 80.00 4.00 
C 78.92 6.28 77.41 6.72 76.00 8.00
C 74.37 10.43 72.52 13.04 70.00 13.00
C 70.55 14.48 68.95 15.45 68.00 16.00
C 67.88 16.26 67.23 16.72 67.00 17.00
C 67.02 17.77 68.20 19.46 68.00 21.00
C 67.94 21.49 68.00 22.00 68.00 22.00
C 68.25 22.25 69.00 22.00 69.00 22.00
C 70.24 22.59 70.91 24.66 71.00 26.00
C 71.03 26.50 71.00 27.00 71.00 27.00
C 73.37 27.41 72.50 27.91 73.00 30.00
C 73.60 30.90 73.66 32.92 74.00 34.00
C 72.44 34.41 71.31 33.54 70.00 33.00
C 71.42 33.38 72.89 35.57 75.00 36.00
C 77.15 35.85 77.18 38.27 78.00 39.00
C 82.16 41.58 86.80 46.20 89.00 51.00
C 100.10 75.28 80.76 103.68 54.00 90.00
C 43.70 84.73 37.67 75.81 35.00 65.00
C 34.59 63.32 33.52 61.34 34.00 59.00
C 33.03 55.22 29.86 54.38 29.00 50.00
C 28.91 49.52 29.00 49.00 29.00 49.00
C 27.76 48.59 26.78 48.92 27.00 47.00
C 26.26 47.37 25.18 45.36 25.00 45.00
C 24.75 44.49 24.39 41.25 24.00 41.00
C 23.64 40.78 22.50 41.00 22.00 41.00
C 22.55 43.25 19.50 43.30 18.00 43.00
C 17.52 42.90 17.00 43.00 17.00 43.00
C 16.23 43.51 16.31 44.08 15.00 44.00
C 16.56 45.86 15.98 49.06 15.00 51.00
C 17.41 52.00 16.52 56.97 17.00 59.00
C 17.23 59.97 21.49 61.75 17.00 63.00
C 16.75 63.25 15.43 63.17 15.00 63.00
C 13.22 64.82 14.90 66.35 12.00 67.00
C 10.83 67.26 7.98 66.58 7.00 66.00
C 4.59 65.91 2.04 65.66 0.00 67.00
L 0.00 89.00
C 1.31 89.16 2.70 88.79 4.00 89.00
C 5.20 88.64 9.14 85.80 12.00 86.00
C 12.65 89.10 11.77 92.07 8.00 91.00
C 5.50 91.84 2.80 92.25 0.00 92.00
L 0.00 100.00
L 100.00 100.00
L 100.00 0.00
L 81.00 0.00
C 81.34 1.57 80.61 2.71 80.00 4.00 Z"/>
</g>
<g fill="None" fill-opacity="0.0" stroke="#CBCBCC" stroke-opacity="0.34" stroke-width="0.3"><path d="
M 64.00 3.00 
C 64.50 3.00 65.00 3.00 65.00 3.00
C 65.91 2.50 67.15 1.61 68.00 1.00
C 66.53 1.16 63.38 0.42 64.00 3.00 Z"/>
</g>
<g fill="None" fill-opacity="0.0" stroke="#53525D" stroke-opacity="0.98" stroke-width="0.3"><path d="
M 70.00 3.00 
C 68.40 3.21 66.62 3.00 65.00 3.00
C 65.00 3.00 64.50 3.00 64.00 3.00
C 63.50 3.00 62.50 3.00 62.00 3.00
C 60.66 4.42 59.44 6.76 57.00 5.00
C 56.51 5.07 56.00 5.00 56.00 5.00
C 56.00 5.00 55.50 5.00 55.00 5.00
C 54.17 5.80 54.09 6.40 53.00 7.00
C 50.20 8.54 48.74 7.62 46.00 7.00
C 45.74 7.21 45.22 7.74 45.00 8.00
C 41.82 11.82 31.79 14.04 27.00 17.00
C 26.68 17.20 26.19 17.68 26.00 18.00
C 25.13 19.43 24.17 20.01 23.00 21.00
C 22.79 21.31 22.31 21.80 22.00 22.00
C 21.81 22.41 22.00 23.00 22.00 23.00
C 32.29 12.51 44.61 11.90 58.00 8.00
C 64.03 6.24 70.45 3.15 77.00 2.00
C 74.33 8.36 66.78 12.16 63.00 18.00
C 58.19 14.48 52.61 13.62 47.31 17.31 C 42.00 20.99 47.59 28.63 46.00 33.00
C 46.15 32.77 47.00 33.00 47.00 33.00
C 48.13 31.46 49.20 30.73 51.00 30.00
C 53.20 29.11 55.73 29.00 58.00 28.00
C 60.27 27.00 61.03 26.17 64.00 26.00
C 65.33 25.92 67.80 26.54 69.00 26.00
C 69.26 25.88 69.96 25.22 70.00 25.00
C 69.79 24.69 69.32 24.19 69.00 24.00
C 67.73 23.23 66.91 23.06 68.00 22.00
C 68.00 22.00 67.94 21.49 68.00 21.00
C 65.87 20.29 67.07 20.76 66.00 19.00
C 65.55 18.27 64.83 18.29 65.00 17.00
C 65.20 15.51 67.83 13.57 69.00 13.00
C 69.40 12.80 70.00 13.00 70.00 13.00
C 70.25 12.75 70.00 12.00 70.00 12.00
C 70.89 10.18 72.52 9.13 74.00 8.00
C 74.96 7.27 75.29 6.91 76.00 6.00
C 76.64 5.17 78.64 3.67 79.00 3.00
C 79.11 2.52 78.82 1.42 79.00 1.00
C 78.44 1.17 75.48 1.29 75.00 1.00
C 73.75 2.03 71.55 2.80 70.00 3.00 Z"/>
</g>
<g fill="None" fill-opacity="0.0" stroke="#383742" stroke-opacity="1.00" stroke-width="0.3"><path d="
M 58.00 8.00 
C 61.95 7.92 65.32 7.79 64.00 13.00
C 48.09 10.26 31.58 23.85 35.00 40.00
C 37.36 38.26 39.51 36.45 42.00 35.00
C 43.05 34.42 45.17 34.18 46.00 33.00
C 47.59 28.63 42.00 20.99 47.31 17.31 C 52.61 13.62 58.19 14.48 63.00 18.00
C 66.78 12.16 74.33 8.36 77.00 2.00
C 70.45 3.15 64.03 6.24 58.00 8.00 Z"/>
</g>
<g fill="None" fill-opacity="0.0" stroke="#D6D5D6" stroke-opacity="0.32" stroke-width="0.3"><path d="
M 56.00 5.00 
C 56.00 5.00 56.51 5.07 57.00 5.00
C 58.12 4.83 58.42 3.21 59.00 3.00
C 56.88 3.15 56.37 2.88 56.00 5.00 Z"/>
</g>
<g fill="None" fill-opacity="0.0" stroke="#9B9A9F" stroke-opacity="0.80" stroke-width="0.3"><path d="
M 57.00 5.00 
C 59.44 6.76 60.66 4.42 62.00 3.00
C 61.01 3.00 59.99 2.93 59.00 3.00
C 58.42 3.21 58.12 4.83 57.00 5.00 Z"/>
</g>
<g fill="None" fill-opacity="0.0" stroke="#9D9CA2" stroke-opacity="0.93" stroke-width="0.3"><path d="
M 76.00 6.00 
C 76.26 5.75 77.00 6.00 77.00 6.00
C 77.44 5.60 78.85 3.66 79.00 3.00
C 78.64 3.67 76.64 5.17 76.00 6.00 Z"/>
</g>
<g fill="None" fill-opacity="0.0" stroke="#E4E5E7" stroke-opacity="0.08" stroke-width="0.3"><path d="
M 77.00 6.00 
C 76.51 6.57 76.39 7.42 76.00 8.00
C 77.41 6.72 78.92 6.28 80.00 4.00
C 79.48 4.72 77.64 5.25 77.00 6.00 Z"/>
</g>
<g fill="None" fill-opacity="0.0" stroke="#A8A7AD" stroke-opacity="0.52" stroke-width="0.3"><path d="
M 46.00 7.00 
C 48.74 7.62 50.20 8.54 53.00 7.00
C 53.24 6.69 52.75 5.25 53.00 5.00
C 50.63 5.28 47.72 5.65 46.00 7.00 Z"/>
</g>
<g fill="None" fill-opacity="0.0" stroke="#686870" stroke-opacity="0.52" stroke-width="0.3"><path d="
M 53.00 7.00 
C 54.09 6.40 54.17 5.80 55.00 5.00
C 54.50 5.00 53.49 4.94 53.00 5.00
C 52.75 5.25 53.24 6.69 53.00 7.00 Z"/>
</g>
<g fill="None" fill-opacity="0.0" stroke="#ACA9AF" stroke-opacity="0.30" stroke-width="0.3"><path d="
M 74.00 8.00 
C 72.59 9.39 71.65 10.85 70.00 12.00
C 70.00 12.00 70.25 12.75 70.00 13.00
C 72.52 13.04 74.37 10.43 76.00 8.00
C 76.39 7.42 76.51 6.57 77.00 6.00
C 77.00 6.00 76.26 5.75 76.00 6.00
C 75.29 6.91 74.96 7.27 74.00 8.00 Z"/>
</g>
<g fill="None" fill-opacity="0.0" stroke="#E1E1E3" stroke-opacity="0.25" stroke-width="0.3"><path d="
M 37.00 10.00 
C 38.89 9.89 38.89 8.36 40.00 8.00
C 37.22 8.40 38.42 9.03 37.00 10.00 Z"/>
</g>
<g fill="None" fill-opacity="0.0" stroke="#89898F" stroke-opacity="0.78" stroke-width="0.3"><path d="
M 37.00 10.00 
C 36.50 10.03 35.50 9.98 35.00 10.00
C 33.06 11.36 29.68 12.98 28.00 15.00
C 27.66 15.40 27.32 16.74 27.00 17.00
C 31.79 14.04 41.82 11.82 45.00 8.00
C 43.47 8.43 41.57 7.77 40.00 8.00
C 38.89 8.36 38.89 9.89 37.00 10.00 Z"/>
</g>
<g fill="None" fill-opacity="0.0" stroke="#27252C" stroke-opacity="1.00" stroke-width="0.3"><path d="
M 22.00 23.00 
C 21.46 24.58 19.96 25.01 19.00 26.00
C 16.87 28.79 16.93 29.80 16.00 33.00
C 16.75 32.39 19.03 32.35 20.00 32.00
C 21.19 36.87 28.75 40.34 27.00 45.00
C 27.05 45.50 27.00 46.00 27.00 46.00
C 27.90 46.73 28.33 45.59 29.00 47.00
C 31.91 43.24 37.10 39.41 41.00 37.00
C 41.40 36.57 41.64 35.32 42.00 35.00
C 39.51 36.45 37.36 38.26 35.00 40.00
C 31.58 23.85 48.09 10.26 64.00 13.00
C 65.32 7.79 61.95 7.92 58.00 8.00
C 44.61 11.90 32.29 12.51 22.00 23.00 Z"/>
</g>
<g fill="None" fill-opacity="0.0" stroke="#919096" stroke-opacity="0.94" stroke-width="0.3"><path d="
M 70.00 12.00 
C 71.65 10.85 72.59 9.39 74.00 8.00
C 72.52 9.13 70.89 10.18 70.00 12.00 Z"/>
</g>
<g fill="None" fill-opacity="0.0" stroke="#AEADB0" stroke-opacity="0.35" stroke-width="0.3"><path d="
M 28.00 15.00 
C 29.68 12.98 33.06 11.36 35.00 10.00
C 30.27 10.15 30.72 12.37 28.00 15.00 Z"/>
</g>
<g fill="None" fill-opacity="0.0" stroke="#7C7B83" stroke-opacity="0.87" stroke-width="0.3"><path d="
M 65.00 17.00 
C 65.12 16.41 67.63 15.44 68.00 15.00
C 68.02 14.89 69.02 12.99 69.00 13.00
C 67.83 13.57 65.20 15.51 65.00 17.00 Z"/>
</g>
<g fill="None" fill-opacity="0.0" stroke="#7F7E81" stroke-opacity="0.13" stroke-width="0.3"><path d="
M 68.00 15.00 
C 67.91 15.48 68.00 16.00 68.00 16.00
C 68.95 15.45 70.55 14.48 70.00 13.00
C 70.00 13.00 69.40 12.80 69.00 13.00
C 69.02 12.99 68.02 14.89 68.00 15.00 Z"/>
</g>
<g fill="None" fill-opacity="0.0" stroke="#797979" stroke-opacity="0.12" stroke-width="0.3"><path d="
M 25.00 17.00 
C 24.83 17.43 25.00 18.00 25.00 18.00
C 25.27 17.75 26.00 18.00 26.00 18.00
C 26.19 17.68 26.68 17.20 27.00 17.00
C 27.32 16.74 27.66 15.40 28.00 15.00
C 27.15 15.82 25.58 15.51 25.00 17.00 Z"/>
</g>
<g fill="None" fill-opacity="0.0" stroke="#929199" stroke-opacity="0.59" stroke-width="0.3"><path d="
M 65.00 17.00 
C 64.83 18.29 65.55 18.27 66.00 19.00
C 65.94 17.46 66.25 17.93 67.00 17.00
C 67.23 16.72 67.88 16.26 68.00 16.00
C 68.00 16.00 67.91 15.48 68.00 15.00
C 67.63 15.44 65.12 16.41 65.00 17.00 Z"/>
</g>
<g fill="None" fill-opacity="0.0" stroke="#CECECE" stroke-opacity="0.26" stroke-width="0.3"><path d="
M 20.00 23.00 
C 20.57 22.51 21.40 22.38 22.00 22.00
C 22.31 21.80 22.79 21.31 23.00 21.00
C 23.66 20.01 24.60 19.10 25.00 18.00
C 25.00 18.00 24.83 17.43 25.00 17.00
C 22.92 18.87 21.40 20.29 20.00 23.00 Z"/>
</g>
<g fill="None" fill-opacity="0.0" stroke="#C6C6C9" stroke-opacity="0.37" stroke-width="0.3"><path d="
M 66.00 19.00 
C 67.07 20.76 65.87 20.29 68.00 21.00
C 68.20 19.46 67.02 17.77 67.00 17.00
C 66.25 17.93 65.94 17.46 66.00 19.00 Z"/>
</g>
<g fill="None" fill-opacity="0.0" stroke="#979798" stroke-opacity="0.72" stroke-width="0.3"><path d="
M 23.00 21.00 
C 24.17 20.01 25.13 19.43 26.00 18.00
C 26.00 18.00 25.27 17.75 25.00 18.00
C 24.60 19.10 23.66 20.01 23.00 21.00 Z"/>
</g>
<g fill="None" fill-opacity="0.0" stroke="#F4F3F3" stroke-opacity="0.24" stroke-width="0.3"><path d="
M 0.00 47.00 
C 1.44 48.69 1.35 52.59 1.00 55.00
C 1.22 57.25 4.32 64.38 0.00 65.00
L 0.00 67.00
C 2.04 65.66 4.59 65.91 7.00 66.00
C 6.78 65.87 7.00 65.00 7.00 65.00
C 5.44 64.17 4.96 63.57 6.00 62.00
C 6.23 61.65 6.00 61.00 6.00 61.00
C 4.83 59.79 4.77 57.84 5.00 56.00
C 5.21 54.31 8.18 53.23 7.00 51.00
C 4.40 54.21 3.42 53.14 5.00 48.00
C -2.63 42.47 6.11 26.19 0.00 20.00
L 0.00 47.00 Z"/>
</g>
<g fill="None" fill-opacity="0.0" stroke="#838283" stroke-opacity="0.62" stroke-width="0.3"><path d="
M 20.00 23.00 
C 19.14 23.74 18.91 23.63 19.00 25.00
C 19.03 25.50 19.00 26.00 19.00 26.00
C 19.96 25.01 21.46 24.58 22.00 23.00
C 22.00 23.00 21.81 22.41 22.00 22.00
C 21.40 22.38 20.57 22.51 20.00 23.00 Z"/>
</g>
<g fill="None" fill-opacity="0.0" stroke="#99979E" stroke-opacity="0.62" stroke-width="0.3"><path d="
M 69.00 24.00 
C 68.82 23.58 69.23 22.16 69.00 22.00
C 69.00 22.00 68.25 22.25 68.00 22.00
C 66.91 23.06 67.73 23.23 69.00 24.00 Z"/>
</g>
<g fill="None" fill-opacity="0.0" stroke="#C8C7C6" stroke-opacity="0.15" stroke-width="0.3"><path d="
M 69.00 24.00 
C 69.32 24.19 69.79 24.69 70.00 25.00
C 70.21 25.31 70.88 25.74 71.00 26.00
C 70.91 24.66 70.24 22.59 69.00 22.00
C 69.23 22.16 68.82 23.58 69.00 24.00 Z"/>
</g>
<g fill="None" fill-opacity="0.0" stroke="#EFDEA7" stroke-opacity="0.63" stroke-width="0.3"><path d="
M 14.00 30.00 
C 13.91 30.77 13.15 31.19 13.00 32.00
C 15.10 29.99 17.09 27.80 18.00 25.00
C 15.26 23.93 15.21 27.29 13.00 27.00
C 13.31 28.17 14.16 28.68 14.00 30.00 Z"/>
</g>
<g fill="None" fill-opacity="0.0" stroke="#A9914D" stroke-opacity="0.96" stroke-width="0.3"><path d="
M 13.00 32.00 
C 12.91 32.48 13.00 33.00 13.00 33.00
C 13.00 33.50 13.00 34.00 13.00 34.00
C 14.19 35.81 13.14 41.36 11.00 43.00
C 10.76 43.18 11.00 44.00 11.00 44.00
C 12.67 43.42 12.27 43.40 14.00 44.00
C 13.75 43.75 14.00 43.00 14.00 43.00
C 13.75 39.33 15.13 35.98 16.00 33.00
C 16.93 29.80 16.87 28.79 19.00 26.00
C 19.00 26.00 19.03 25.50 19.00 25.00
C 19.00 25.00 18.50 24.97 18.00 25.00
C 17.09 27.80 15.10 29.99 13.00 32.00 Z"/>
</g>
<g fill="None" fill-opacity="0.0" stroke="#E7D692" stroke-opacity="0.74" stroke-width="0.3"><path d="
M 69.00 26.00 
C 68.99 26.37 70.73 27.67 71.00 28.00
C 70.93 27.51 71.00 27.00 71.00 27.00
C 71.00 27.00 71.03 26.50 71.00 26.00
C 70.88 25.74 70.21 25.31 70.00 25.00
C 69.96 25.22 69.26 25.88 69.00 26.00 Z"/>
</g>
<g fill="None" fill-opacity="0.0" stroke="#998C57" stroke-opacity="1.00" stroke-width="0.3"><path d="
M 58.00 28.00 
C 59.53 27.52 62.83 26.20 64.00 26.00
C 61.03 26.17 60.27 27.00 58.00 28.00 Z"/>
</g>
<g fill="None" fill-opacity="0.0" stroke="#F1CC4C" stroke-opacity="0.96" stroke-width="0.3"><path d="
M 58.00 28.00 
C 55.73 29.00 53.20 29.11 51.00 30.00
C 50.41 30.33 49.72 31.55 49.00 32.00
C 46.83 33.91 44.53 36.30 42.00 38.00
C 41.43 40.19 44.98 39.83 43.00 42.00
C 47.32 38.79 55.59 32.74 61.00 33.00
C 61.50 33.02 62.50 33.00 63.00 33.00
C 65.82 31.80 67.44 32.69 70.00 33.00
C 71.31 33.54 72.44 34.41 74.00 34.00
C 73.66 32.92 73.60 30.90 73.00 30.00
C 72.43 29.14 71.20 29.34 71.00 28.00
C 70.73 27.67 68.99 26.37 69.00 26.00
C 67.80 26.54 65.33 25.92 64.00 26.00
C 62.83 26.20 59.53 27.52 58.00 28.00 Z"/>
</g>
<g fill="None" fill-opacity="0.0" stroke="#FEF3C9" stroke-opacity="0.46" stroke-width="0.3"><path d="
M 71.00 28.00 
C 71.20 29.34 72.43 29.14 73.00 30.00
C 72.50 27.91 73.37 27.41 71.00 27.00
C 71.00 27.00 70.93 27.51 71.00 28.00 Z"/>
</g>
<g fill="None" fill-opacity="0.0" stroke="#C9C7BD" stroke-opacity="0.28" stroke-width="0.3"><path d="
M 10.00 34.00 
C 10.95 33.32 12.17 33.52 13.00 33.00
C 13.00 33.00 12.91 32.48 13.00 32.00
C 13.15 31.19 13.91 30.77 14.00 30.00
C 13.57 30.71 10.94 32.63 10.00 34.00 Z"/>
</g>
<g fill="None" fill-opacity="0.0" stroke="#73694D" stroke-opacity="1.00" stroke-width="0.3"><path d="
M 47.00 33.00 
C 47.43 32.92 48.65 32.22 49.00 32.00
C 49.72 31.55 50.41 30.33 51.00 30.00
C 49.20 30.73 48.13 31.46 47.00 33.00 Z"/>
</g>
<g fill="None" fill-opacity="0.0" stroke="#535059" stroke-opacity="0.98" stroke-width="0.3"><path d="
M 16.00 33.00 
C 15.13 35.98 13.75 39.33 14.00 43.00
C 14.25 42.75 15.00 43.00 15.00 43.00
C 15.82 42.45 15.93 42.41 17.00 42.00
C 18.26 41.52 19.13 40.76 21.00 41.00
C 22.63 40.71 22.19 39.74 24.00 41.00
C 25.06 41.73 25.19 43.02 26.00 44.00
C 26.22 44.26 26.97 44.65 27.00 45.00
C 28.75 40.34 21.19 36.87 20.00 32.00
C 19.03 32.35 16.75 32.39 16.00 33.00 Z"/>
</g>
<g fill="None" fill-opacity="0.0" stroke="#DAA12A" stroke-opacity="0.99" stroke-width="0.3"><path d="
M 47.00 33.00 
C 47.00 33.00 46.15 32.77 46.00 33.00
C 44.56 35.21 43.11 35.70 41.00 37.00
C 37.10 39.41 31.91 43.24 29.00 47.00
C 29.19 47.41 29.00 48.50 29.00 49.00
C 29.00 49.00 28.91 49.52 29.00 50.00
C 30.97 51.38 33.49 54.90 36.00 55.00
C 36.17 54.67 36.96 54.22 37.00 54.00
C 37.16 53.22 37.82 52.82 38.00 52.00
C 38.07 51.68 37.77 49.12 38.00 49.00
C 37.31 47.02 35.94 49.81 38.00 47.00
C 38.79 45.14 41.34 43.23 43.00 42.00
C 44.98 39.83 41.43 40.19 42.00 38.00
C 44.53 36.30 46.83 33.91 49.00 32.00
C 48.65 32.22 47.43 32.92 47.00 33.00 Z"/>
</g>
<g fill="None" fill-opacity="0.0" stroke="#BC8530" stroke-opacity="0.43" stroke-width="0.3"><path d="
M 63.00 33.00 
C 65.08 33.00 68.00 32.46 70.00 33.00
C 67.44 32.69 65.82 31.80 63.00 33.00 Z"/>
</g>
<g fill="None" fill-opacity="0.0" stroke="#7A7A7C" stroke-opacity="0.61" stroke-width="0.3"><path d="
M 10.00 34.00 
C 9.57 34.62 8.51 35.42 8.00 36.00
C 7.71 36.55 7.75 38.59 7.00 39.00
C 9.27 37.89 10.98 35.41 13.00 34.00
C 13.00 34.00 13.00 33.50 13.00 33.00
C 12.17 33.52 10.95 33.32 10.00 34.00 Z"/>
</g>
<g fill="None" fill-opacity="0.0" stroke="#877239" stroke-opacity="1.00" stroke-width="0.3"><path d="
M 42.00 35.00 
C 41.64 35.32 41.40 36.57 41.00 37.00
C 43.11 35.70 44.56 35.21 46.00 33.00
C 45.17 34.18 43.05 34.42 42.00 35.00 Z"/>
</g>
<g fill="None" fill-opacity="0.0" stroke="#BDB742" stroke-opacity="0.96" stroke-width="0.3"><path d="
M 43.00 42.00 
C 41.34 43.23 38.79 45.14 38.00 47.00
C 37.82 47.42 38.20 48.90 38.00 49.00
C 37.77 49.12 38.07 51.68 38.00 52.00
C 38.42 52.49 40.46 51.61 41.00 52.00
C 40.32 61.09 43.75 68.92 49.25 75.75 C 54.75 82.59 63.40 84.71 69.00 89.00
C 64.03 92.71 57.88 85.67 54.00 90.00
C 80.76 103.68 100.10 75.28 89.00 51.00
C 86.29 47.20 79.65 42.91 76.00 39.00
C 72.32 36.55 64.92 33.27 61.00 33.00
C 55.59 32.74 47.32 38.79 43.00 42.00
M 86.00 58.00 
C 86.08 58.49 86.01 59.50 86.00 60.00
C 87.55 63.66 86.96 67.96 86.00 72.00
C 85.50 55.31 69.24 36.80 51.00 42.00
C 51.85 40.08 54.05 39.22 56.00 39.00
C 56.50 38.96 57.50 39.00 58.00 39.00
C 69.17 34.25 84.06 46.82 86.00 58.00
M 73.00 56.00 
C 70.03 58.97 64.54 52.50 60.00 54.00
C 47.43 60.76 71.24 79.86 73.00 63.00
C 77.82 62.39 78.45 68.57 79.00 72.00
C 72.86 70.31 61.25 78.87 57.08 72.92 C 52.92 66.96 52.54 58.60 50.00 52.00
C 57.77 50.90 74.62 42.87 73.00 56.00 Z"/>
</g>
<g fill="None" fill-opacity="0.0" stroke="#DFE1AF" stroke-opacity="0.76" stroke-width="0.3"><path d="
M 76.00 39.00 
C 75.58 38.55 75.11 37.60 75.00 37.00
C 74.91 36.52 75.00 36.00 75.00 36.00
C 72.89 35.57 71.42 33.38 70.00 33.00
C 68.00 32.46 65.08 33.00 63.00 33.00
C 62.50 33.00 61.50 33.02 61.00 33.00
C 64.92 33.27 72.32 36.55 76.00 39.00 Z"/>
</g>
<g fill="None" fill-opacity="0.0" stroke="#3E3D44" stroke-opacity="0.98" stroke-width="0.3"><path d="
M 7.00 39.00 
C 6.60 39.20 6.00 39.00 6.00 39.00
C 5.82 40.95 4.46 41.30 4.00 43.00
C 4.27 45.03 4.96 45.00 7.00 45.00
C 8.22 44.87 8.51 42.23 11.00 43.00
C 11.12 39.86 12.48 37.07 13.00 34.00
C 10.98 35.41 9.27 37.89 7.00 39.00 Z"/>
</g>
<g fill="None" fill-opacity="0.0" stroke="#7D6E45" stroke-opacity="1.00" stroke-width="0.3"><path d="
M 11.00 43.00 
C 13.14 41.36 14.19 35.81 13.00 34.00
C 12.48 37.07 11.12 39.86 11.00 43.00 Z"/>
</g>
<g fill="None" fill-opacity="0.0" stroke="#727272" stroke-opacity="0.05" stroke-width="0.3"><path d="
M 6.00 38.00 
C 6.00 38.00 6.05 38.50 6.00 39.00
C 6.00 39.00 6.60 39.20 7.00 39.00
C 7.75 38.59 7.71 36.55 8.00 36.00
C 7.46 36.61 6.37 37.30 6.00 38.00 Z"/>
</g>
<g fill="None" fill-opacity="0.0" stroke="#F1F2E0" stroke-opacity="0.06" stroke-width="0.3"><path d="
M 75.00 37.00 
C 75.72 37.79 77.13 38.46 78.00 39.00
C 77.18 38.27 77.15 35.85 75.00 36.00
C 75.00 36.00 74.91 36.52 75.00 37.00 Z"/>
</g>
<g fill="None" fill-opacity="0.0" stroke="#E8E5B1" stroke-opacity="0.47" stroke-width="0.3"><path d="
M 76.00 39.00 
C 79.65 42.91 86.29 47.20 89.00 51.00
C 86.80 46.20 82.16 41.58 78.00 39.00
C 77.13 38.46 75.72 37.79 75.00 37.00
C 75.11 37.60 75.58 38.55 76.00 39.00 Z"/>
</g>
<g fill="None" fill-opacity="0.0" stroke="#90860B" stroke-opacity="1.00" stroke-width="0.3"><path d="
M 58.00 39.00 
C 71.36 39.00 80.39 46.55 86.00 58.00
C 84.06 46.82 69.17 34.25 58.00 39.00 Z"/>
</g>
<g fill="None" fill-opacity="0.0" stroke="#938814" stroke-opacity="1.00" stroke-width="0.3"><path d="
M 86.00 60.00 
C 85.98 61.28 86.58 63.49 85.00 64.00
C 84.31 49.33 69.26 39.55 56.00 39.00
C 54.05 39.22 51.85 40.08 51.00 42.00
C 69.24 36.80 85.50 55.31 86.00 72.00
C 86.96 67.96 87.55 63.66 86.00 60.00 Z"/>
</g>
<g fill="None" fill-opacity="0.0" stroke="#7A6E04" stroke-opacity="1.00" stroke-width="0.3"><path d="
M 86.00 60.00 
C 86.01 59.50 86.08 58.49 86.00 58.00
C 80.39 46.55 71.36 39.00 58.00 39.00
C 57.50 39.00 56.50 38.96 56.00 39.00
C 69.26 39.55 84.31 49.33 85.00 64.00
C 86.58 63.49 85.98 61.28 86.00 60.00 Z"/>
</g>
<g fill="None" fill-opacity="0.0" stroke="#6D6B76" stroke-opacity="0.66" stroke-width="0.3"><path d="
M 21.00 41.00 
C 21.49 41.06 22.00 41.00 22.00 41.00
C 22.50 41.00 23.64 40.78 24.00 41.00
C 22.19 39.74 22.63 40.71 21.00 41.00 Z"/>
</g>
<g fill="None" fill-opacity="0.0" stroke="#BEBAC3" stroke-opacity="0.60" stroke-width="0.3"><path d="
M 17.00 42.00 
C 17.00 41.99 18.03 42.98 18.00 43.00
C 19.50 43.30 22.55 43.25 22.00 41.00
C 22.00 41.00 21.49 41.06 21.00 41.00
C 19.13 40.76 18.26 41.52 17.00 42.00 Z"/>
</g>
<g fill="None" fill-opacity="0.0" stroke="#A9A7A9" stroke-opacity="0.20" stroke-width="0.3"><path d="
M 25.00 45.00 
C 25.09 44.75 25.78 44.04 26.00 44.00
C 25.19 43.02 25.06 41.73 24.00 41.00
C 24.39 41.25 24.75 44.49 25.00 45.00 Z"/>
</g>
<g fill="None" fill-opacity="0.0" stroke="#807E87" stroke-opacity="0.72" stroke-width="0.3"><path d="
M 15.00 43.00 
C 15.50 43.00 16.50 43.00 17.00 43.00
C 17.00 43.00 17.52 42.90 18.00 43.00
C 18.03 42.98 17.00 41.99 17.00 42.00
C 15.93 42.41 15.82 42.45 15.00 43.00 Z"/>
</g>
<g fill="None" fill-opacity="0.0" stroke="#A8A6A6" stroke-opacity="1.00" stroke-width="0.3"><path d="
M 9.00 46.00 
C 9.11 45.66 10.72 44.15 11.00 44.00
C 10.01 44.21 7.91 45.00 7.00 45.00
C 4.96 45.00 4.27 45.03 4.00 43.00
C 3.33 45.47 5.42 47.21 9.00 46.00 Z"/>
</g>
<g fill="None" fill-opacity="0.0" stroke="#737179" stroke-opacity="1.00" stroke-width="0.3"><path d="
M 7.00 45.00 
C 7.91 45.00 10.01 44.21 11.00 44.00
C 11.00 44.00 10.76 43.18 11.00 43.00
C 8.51 42.23 8.22 44.87 7.00 45.00 Z"/>
</g>
<g fill="None" fill-opacity="0.0" stroke="#F5C64D" stroke-opacity="0.97" stroke-width="0.3"><path d="
M 11.00 44.00 
C 10.72 44.15 9.11 45.66 9.00 46.00
C 8.31 48.10 10.06 49.67 9.00 52.00
C 9.09 52.48 9.08 53.51 9.00 54.00
C 8.59 56.37 7.26 60.29 6.00 62.00
C 4.96 63.57 5.44 64.17 7.00 65.00
C 11.10 65.44 13.05 61.93 17.00 61.00
C 17.00 60.50 17.25 59.26 17.00 59.00
C 15.41 57.32 14.03 54.53 14.00 52.00
C 11.65 50.27 15.79 46.85 14.00 44.00
C 12.27 43.40 12.67 43.42 11.00 44.00
M 12.00 57.00 
C 13.21 63.27 9.10 60.91 12.00 57.00 Z"/>
</g>
<g fill="None" fill-opacity="0.0" stroke="#807B7C" stroke-opacity="0.12" stroke-width="0.3"><path d="
M 14.00 44.00 
C 14.25 44.25 15.00 44.00 15.00 44.00
C 16.31 44.08 16.23 43.51 17.00 43.00
C 16.50 43.00 15.50 43.00 15.00 43.00
C 15.00 43.00 14.25 42.75 14.00 43.00
C 14.00 43.00 13.75 43.75 14.00 44.00 Z"/>
</g>
<g fill="None" fill-opacity="0.0" stroke="#F9D968" stroke-opacity="0.33" stroke-width="0.3"><path d="
M 14.00 52.00 
C 14.00 51.84 14.83 51.33 15.00 51.00
C 15.98 49.06 16.56 45.86 15.00 44.00
C 15.00 44.00 14.25 44.25 14.00 44.00
C 15.79 46.85 11.65 50.27 14.00 52.00 Z"/>
</g>
<g fill="None" fill-opacity="0.0" stroke="#E4E2E4" stroke-opacity="0.20" stroke-width="0.3"><path d="
M 25.00 45.00 
C 25.18 45.36 26.26 47.37 27.00 47.00
C 27.06 46.51 27.00 46.00 27.00 46.00
C 27.00 46.00 27.05 45.50 27.00 45.00
C 26.97 44.65 26.22 44.26 26.00 44.00
C 25.78 44.04 25.09 44.75 25.00 45.00 Z"/>
</g>
<g fill="None" fill-opacity="0.0" stroke="#9D9B9F" stroke-opacity="0.52" stroke-width="0.3"><path d="
M 27.00 47.00 
C 26.78 48.92 27.76 48.59 29.00 49.00
C 29.00 48.50 29.19 47.41 29.00 47.00
C 28.33 45.59 27.90 46.73 27.00 46.00
C 27.00 46.00 27.06 46.51 27.00 47.00 Z"/>
</g>
<g fill="None" fill-opacity="0.0" stroke="#FFFFFF" stroke-opacity="0.49" stroke-width="0.3"><path d="
M 0.00 56.00 
C 0.34 55.84 0.95 55.35 1.00 55.00
C 1.35 52.59 1.44 48.69 0.00 47.00
L 0.00 56.00 Z"/>
</g>
<g fill="None" fill-opacity="0.0" stroke="#FEFDF9" stroke-opacity="0.39" stroke-width="0.3"><path d="
M 5.00 48.00 
C 3.42 53.14 4.40 54.21 7.00 51.00
C 8.18 53.23 5.21 54.31 5.00 56.00
C 5.14 55.81 7.57 55.40 8.00 55.00
C 8.21 54.70 8.89 54.26 9.00 54.00
C 9.08 53.51 9.09 52.48 9.00 52.00
C 8.28 47.95 6.41 49.02 5.00 48.00 Z"/>
</g>
<g fill="None" fill-opacity="0.0" stroke="#8B6B32" stroke-opacity="1.00" stroke-width="0.3"><path d="
M 38.00 49.00 
C 38.20 48.90 37.82 47.42 38.00 47.00
C 35.94 49.81 37.31 47.02 38.00 49.00 Z"/>
</g>
<g fill="None" fill-opacity="0.0" stroke="#464949" stroke-opacity="1.00" stroke-width="0.3"><path d="
M 60.00 54.00 
C 65.03 51.30 68.96 58.11 73.00 56.00
C 74.62 42.87 57.77 50.90 50.00 52.00
C 52.54 58.60 52.92 66.96 57.08 72.92 C 61.25 78.87 72.86 70.31 79.00 72.00
C 78.45 68.57 77.82 62.39 73.00 63.00
C 71.24 79.86 47.43 60.76 60.00 54.00 Z"/>
</g>
<g fill="None" fill-opacity="0.0" stroke="#ECDAA4" stroke-opacity="0.48" stroke-width="0.3"><path d="
M 34.00 59.00 
C 34.16 58.21 35.46 56.02 36.00 55.00
C 33.49 54.90 30.97 51.38 29.00 50.00
C 29.86 54.38 33.03 55.22 34.00 59.00 Z"/>
</g>
<g fill="None" fill-opacity="0.0" stroke="#FCEFC7" stroke-opacity="0.48" stroke-width="0.3"><path d="
M 14.00 52.00 
C 14.03 54.53 15.41 57.32 17.00 59.00
C 16.52 56.97 17.41 52.00 15.00 51.00
C 14.83 51.33 14.00 51.84 14.00 52.00 Z"/>
</g>
<g fill="None" fill-opacity="0.0" stroke="#A9A222" stroke-opacity="0.92" stroke-width="0.3"><path d="
M 37.00 54.00 
C 36.38 56.90 35.16 62.71 35.00 65.00
C 37.67 75.81 43.70 84.73 54.00 90.00
C 57.88 85.67 64.03 92.71 69.00 89.00
C 63.40 84.71 54.75 82.59 49.25 75.75 C 43.75 68.92 40.32 61.09 41.00 52.00
C 40.46 51.61 38.42 52.49 38.00 52.00
C 37.82 52.82 37.16 53.22 37.00 54.00 Z"/>
</g>
<g fill="None" fill-opacity="0.0" stroke="#59571F" stroke-opacity="1.00" stroke-width="0.3"><path d="
M 60.00 54.00 
C 64.54 52.50 70.03 58.97 73.00 56.00
C 68.96 58.11 65.03 51.30 60.00 54.00 Z"/>
</g>
<g fill="None" fill-opacity="0.0" stroke="#F8E3A9" stroke-opacity="1.00" stroke-width="0.3"><path d="
M 8.00 55.00 
C 6.74 56.82 6.04 58.77 6.00 61.00
C 6.00 61.00 6.23 61.65 6.00 62.00
C 7.26 60.29 8.59 56.37 9.00 54.00
C 8.89 54.26 8.21 54.70 8.00 55.00 Z"/>
</g>
<g fill="None" fill-opacity="0.0" stroke="#CDBF67" stroke-opacity="0.76" stroke-width="0.3"><path d="
M 36.00 55.00 
C 35.46 56.02 34.16 58.21 34.00 59.00
C 33.52 61.34 34.59 63.32 35.00 65.00
C 35.16 62.71 36.38 56.90 37.00 54.00
C 36.96 54.22 36.17 54.67 36.00 55.00 Z"/>
</g>
<g fill="None" fill-opacity="0.0" stroke="#FFFFFF" stroke-opacity="0.64" stroke-width="0.3"><path d="
M 0.00 56.00 
L 0.00 65.00
C 4.32 64.38 1.22 57.25 1.00 55.00
C 0.95 55.35 0.34 55.84 0.00 56.00 Z"/>
</g>
<g fill="None" fill-opacity="0.0" stroke="#FDFAF2" stroke-opacity="1.00" stroke-width="0.3"><path d="
M 5.00 56.00 
C 4.77 57.84 4.83 59.79 6.00 61.00
C 6.04 58.77 6.74 56.82 8.00 55.00
C 7.57 55.40 5.14 55.81 5.00 56.00 Z"/>
</g>
<g fill="None" fill-opacity="0.0" stroke="#EA8011" stroke-opacity="1.00" stroke-width="0.3"><path d="
M 12.00 57.00 
C 9.10 60.91 13.21 63.27 12.00 57.00 Z"/>
</g>
<g fill="None" fill-opacity="0.0" stroke="#FDF9F2" stroke-opacity="0.11" stroke-width="0.3"><path d="
M 17.00 61.00 
C 17.00 61.50 17.25 62.75 17.00 63.00
C 21.49 61.75 17.23 59.97 17.00 59.00
C 17.25 59.26 17.00 60.50 17.00 61.00 Z"/>
</g>
<g fill="None" fill-opacity="0.0" stroke="#F0D193" stroke-opacity="0.56" stroke-width="0.3"><path d="
M 7.00 65.00 
C 7.00 65.00 6.78 65.87 7.00 66.00
C 7.98 66.58 10.83 67.26 12.00 67.00
C 12.92 64.41 12.32 61.92 15.00 63.00
C 15.43 63.17 16.75 63.25 17.00 63.00
C 17.25 62.75 17.00 61.50 17.00 61.00
C 13.05 61.93 11.10 65.44 7.00 65.00 Z"/>
</g>
<g fill="None" fill-opacity="0.0" stroke="#DACEC8" stroke-opacity="0.07" stroke-width="0.3"><path d="
M 12.00 67.00 
C 14.90 66.35 13.22 64.82 15.00 63.00
C 12.32 61.92 12.92 64.41 12.00 67.00 Z"/>
</g>
<g fill="None" fill-opacity="0.0" stroke="#FFFFFF" stroke-opacity="0.37" stroke-width="0.3"><path d="
M 4.00 89.00 
C 4.63 89.10 7.46 90.98 8.00 91.00
C 11.77 92.07 12.65 89.10 12.00 86.00
C 9.14 85.80 5.20 88.64 4.00 89.00 Z"/>
</g>
<g fill="None" fill-opacity="0.0" stroke="#FFFFFF" stroke-opacity="0.22" stroke-width="0.3"><path d="
M 0.00 92.00 
C 2.80 92.25 5.50 91.84 8.00 91.00
C 7.46 90.98 4.63 89.10 4.00 89.00
C 2.70 88.79 1.31 89.16 0.00 89.00
L 0.00 92.00 Z"/>
</g>
<g fill="#FBFBFA" fill-opacity="0.81" stroke="None">
<path d="
M 0.00 20.00 
C 6.11 26.19 -2.63 42.47 5.00 48.00
C 6.41 49.02 8.28 47.95 9.00 52.00
C 10.06 49.67 8.31 48.10 9.00 46.00
C 5.42 47.21 3.33 45.47 4.00 43.00
C 4.46 41.30 5.82 40.95 6.00 39.00
C 6.05 38.50 6.00 38.00 6.00 38.00
C 7.36 25.45 1.00 12.68 2.00 0.00
L 0.00 0.00
L 0.00 20.00 Z"/>
</g>
<g fill="#000000" fill-opacity="0.00" stroke="None">
<path d="
M 6.00 38.00 
C 6.37 37.30 7.46 36.61 8.00 36.00
C 8.51 35.42 9.57 34.62 10.00 34.00
C 10.94 32.63 13.57 30.71 14.00 30.00
C 14.16 28.68 13.31 28.17 13.00 27.00
C 15.21 27.29 15.26 23.93 18.00 25.00
C 18.50 24.97 19.00 25.00 19.00 25.00
C 18.91 23.63 19.14 23.74 20.00 23.00
C 21.40 20.29 22.92 18.87 25.00 17.00
C 25.58 15.51 27.15 15.82 28.00 15.00
C 30.72 12.37 30.27 10.15 35.00 10.00
C 35.50 9.98 36.50 10.03 37.00 10.00
C 38.42 9.03 37.22 8.40 40.00 8.00
C 41.57 7.77 43.47 8.43 45.00 8.00
C 45.22 7.74 45.74 7.21 46.00 7.00
C 47.72 5.65 50.63 5.28 53.00 5.00
C 53.49 4.94 54.50 5.00 55.00 5.00
C 55.50 5.00 56.00 5.00 56.00 5.00
C 56.37 2.88 56.88 3.15 59.00 3.00
C 59.99 2.93 61.01 3.00 62.00 3.00
C 62.50 3.00 63.50 3.00 64.00 3.00
C 63.38 0.42 66.53 1.16 68.00 1.00
C 68.30 0.78 68.84 0.34 69.00 0.00
L 2.00 0.00
C 1.00 12.68 7.36 25.45 6.00 38.00 Z"/>
</g>
<g fill="#9A979F" fill-opacity="0.75" stroke="None">
<path d="
M 68.00 1.00 
C 67.15 1.61 65.91 2.50 65.00 3.00
C 66.62 3.00 68.40 3.21 70.00 3.00
C 71.21 2.61 72.16 1.20 71.00 0.00
L 69.00 0.00
C 68.84 0.34 68.30 0.78 68.00 1.00 Z"/>
</g>
<g fill="#6A6873" fill-opacity="0.69" stroke="None">
<path d="
M 70.00 3.00 
C 71.55 2.80 73.75 2.03 75.00 1.00
C 75.25 0.80 75.00 0.00 75.00 0.00
L 71.00 0.00
C 72.16 1.20 71.21 2.61 70.00 3.00 Z"/>
</g>
<g fill="#828189" fill-opacity="0.94" stroke="None">
<path d="
M 75.00 1.00 
C 75.48 1.29 78.44 1.17 79.00 1.00
C 79.35 0.89 79.84 0.34 80.00 0.00
L 75.00 0.00
C 75.00 0.00 75.25 0.80 75.00 1.00 Z"/>
</g>
<g fill="#C0BFC3" fill-opacity="0.60" stroke="None">
<path d="
M 79.00 1.00 
C 78.82 1.42 79.11 2.52 79.00 3.00
C 78.85 3.66 77.44 5.60 77.00 6.00
C 77.64 5.25 79.48 4.72 80.00 4.00
C 80.61 2.71 81.34 1.57 81.00 0.00
L 80.00 0.00
C 79.84 0.34 79.35 0.89 79.00 1.00 Z"/>
</g>
<g fill="#000000" fill-opacity="0.00" stroke="None">
<path d="
M 80.00 4.00 
C 78.92 6.28 77.41 6.72 76.00 8.00
C 74.37 10.43 72.52 13.04 70.00 13.00
C 70.55 14.48 68.95 15.45 68.00 16.00
C 67.88 16.26 67.23 16.72 67.00 17.00
C 67.02 17.77 68.20 19.46 68.00 21.00
C 67.94 21.49 68.00 22.00 68.00 22.00
C 68.25 22.25 69.00 22.00 69.00 22.00
C 70.24 22.59 70.91 24.66 71.00 26.00
C 71.03 26.50 71.00 27.00 71.00 27.00
C 73.37 27.41 72.50 27.91 73.00 30.00
C 73.60 30.90 73.66 32.92 74.00 34.00
C 72.44 34.41 71.31 33.54 70.00 33.00
C 71.42 33.38 72.89 35.57 75.00 36.00
C 77.15 35.85 77.18 38.27 78.00 39.00
C 82.16 41.58 86.80 46.20 89.00 51.00
C 100.10 75.28 80.76 103.68 54.00 90.00
C 43.70 84.73 37.67 75.81 35.00 65.00
C 34.59 63.32 33.52 61.34 34.00 59.00
C 33.03 55.22 29.86 54.38 29.00 50.00
C 28.91 49.52 29.00 49.00 29.00 49.00
C 27.76 48.59 26.78 48.92 27.00 47.00
C 26.26 47.37 25.18 45.36 25.00 45.00
C 24.75 44.49 24.39 41.25 24.00 41.00
C 23.64 40.78 22.50 41.00 22.00 41.00
C 22.55 43.25 19.50 43.30 18.00 43.00
C 17.52 42.90 17.00 43.00 17.00 43.00
C 16.23 43.51 16.31 44.08 15.00 44.00
C 16.56 45.86 15.98 49.06 15.00 51.00
C 17.41 52.00 16.52 56.97 17.00 59.00
C 17.23 59.97 21.49 61.75 17.00 63.00
C 16.75 63.25 15.43 63.17 15.00 63.00
C 13.22 64.82 14.90 66.35 12.00 67.00
C 10.83 67.26 7.98 66.58 7.00 66.00
C 4.59 65.91 2.04 65.66 0.00 67.00
L 0.00 89.00
C 1.31 89.16 2.70 88.79 4.00 89.00
C 5.20 88.64 9.14 85.80 12.00 86.00
C 12.65 89.10 11.77 92.07 8.00 91.00
C 5.50 91.84 2.80 92.25 0.00 92.00
L 0.00 100.00
L 100.00 100.00
L 100.00 0.00
L 81.00 0.00
C 81.34 1.57 80.61 2.71 80.00 4.00 Z"/>
</g>
<g fill="#CBCBCC" fill-opacity="0.34" stroke="None">
<path d="
M 64.00 3.00 
C 64.50 3.00 65.00 3.00 65.00 3.00
C 65.91 2.50 67.15 1.61 68.00 1.00
C 66.53 1.16 63.38 0.42 64.00 3.00 Z"/>
</g>
<g fill="#53525D" fill-opacity="0.98" stroke="None">
<path d="
M 70.00 3.00 
C 68.40 3.21 66.62 3.00 65.00 3.00
C 65.00 3.00 64.50 3.00 64.00 3.00
C 63.50 3.00 62.50 3.00 62.00 3.00
C 60.66 4.42 59.44 6.76 57.00 5.00
C 56.51 5.07 56.00 5.00 56.00 5.00
C 56.00 5.00 55.50 5.00 55.00 5.00
C 54.17 5.80 54.09 6.40 53.00 7.00
C 50.20 8.54 48.74 7.62 46.00 7.00
C 45.74 7.21 45.22 7.74 45.00 8.00
C 41.82 11.82 31.79 14.04 27.00 17.00
C 26.68 17.20 26.19 17.68 26.00 18.00
C 25.13 19.43 24.17 20.01 23.00 21.00
C 22.79 21.31 22.31 21.80 22.00 22.00
C 21.81 22.41 22.00 23.00 22.00 23.00
C 32.29 12.51 44.61 11.90 58.00 8.00
C 64.03 6.24 70.45 3.15 77.00 2.00
C 74.33 8.36 66.78 12.16 63.00 18.00
C 58.19 14.48 52.61 13.62 47.31 17.31 C 42.00 20.99 47.59 28.63 46.00 33.00
C 46.15 32.77 47.00 33.00 47.00 33.00
C 48.13 31.46 49.20 30.73 51.00 30.00
C 53.20 29.11 55.73 29.00 58.00 28.00
C 60.27 27.00 61.03 26.17 64.00 26.00
C 65.33 25.92 67.80 26.54 69.00 26.00
C 69.26 25.88 69.96 25.22 70.00 25.00
C 69.79 24.69 69.32 24.19 69.00 24.00
C 67.73 23.23 66.91 23.06 68.00 22.00
C 68.00 22.00 67.94 21.49 68.00 21.00
C 65.87 20.29 67.07 20.76 66.00 19.00
C 65.55 18.27 64.83 18.29 65.00 17.00
C 65.20 15.51 67.83 13.57 69.00 13.00
C 69.40 12.80 70.00 13.00 70.00 13.00
C 70.25 12.75 70.00 12.00 70.00 12.00
C 70.89 10.18 72.52 9.13 74.00 8.00
C 74.96 7.27 75.29 6.91 76.00 6.00
C 76.64 5.17 78.64 3.67 79.00 3.00
C 79.11 2.52 78.82 1.42 79.00 1.00
C 78.44 1.17 75.48 1.29 75.00 1.00
C 73.75 2.03 71.55 2.80 70.00 3.00 Z"/>
</g>
<g fill="#383742" fill-opacity="1.00" stroke="None">
<path d="
M 58.00 8.00 
C 61.95 7.92 65.32 7.79 64.00 13.00
C 48.09 10.26 31.58 23.85 35.00 40.00
C 37.36 38.26 39.51 36.45 42.00 35.00
C 43.05 34.42 45.17 34.18 46.00 33.00
C 47.59 28.63 42.00 20.99 47.31 17.31 C 52.61 13.62 58.19 14.48 63.00 18.00
C 66.78 12.16 74.33 8.36 77.00 2.00
C 70.45 3.15 64.03 6.24 58.00 8.00 Z"/>
</g>
<g fill="#D6D5D6" fill-opacity="0.32" stroke="None">
<path d="
M 56.00 5.00 
C 56.00 5.00 56.51 5.07 57.00 5.00
C 58.12 4.83 58.42 3.21 59.00 3.00
C 56.88 3.15 56.37 2.88 56.00 5.00 Z"/>
</g>
<g fill="#9B9A9F" fill-opacity="0.80" stroke="None">
<path d="
M 57.00 5.00 
C 59.44 6.76 60.66 4.42 62.00 3.00
C 61.01 3.00 59.99 2.93 59.00 3.00
C 58.42 3.21 58.12 4.83 57.00 5.00 Z"/>
</g>
<g fill="#9D9CA2" fill-opacity="0.93" stroke="None">
<path d="
M 76.00 6.00 
C 76.26 5.75 77.00 6.00 77.00 6.00
C 77.44 5.60 78.85 3.66 79.00 3.00
C 78.64 3.67 76.64 5.17 76.00 6.00 Z"/>
</g>
<g fill="#E4E5E7" fill-opacity="0.08" stroke="None">
<path d="
M 77.00 6.00 
C 76.51 6.57 76.39 7.42 76.00 8.00
C 77.41 6.72 78.92 6.28 80.00 4.00
C 79.48 4.72 77.64 5.25 77.00 6.00 Z"/>
</g>
<g fill="#A8A7AD" fill-opacity="0.52" stroke="None">
<path d="
M 46.00 7.00 
C 48.74 7.62 50.20 8.54 53.00 7.00
C 53.24 6.69 52.75 5.25 53.00 5.00
C 50.63 5.28 47.72 5.65 46.00 7.00 Z"/>
</g>
<g fill="#686870" fill-opacity="0.52" stroke="None">
<path d="
M 53.00 7.00 
C 54.09 6.40 54.17 5.80 55.00 5.00
C 54.50 5.00 53.49 4.94 53.00 5.00
C 52.75 5.25 53.24 6.69 53.00 7.00 Z"/>
</g>
<g fill="#ACA9AF" fill-opacity="0.30" stroke="None">
<path d="
M 74.00 8.00 
C 72.59 9.39 71.65 10.85 70.00 12.00
C 70.00 12.00 70.25 12.75 70.00 13.00
C 72.52 13.04 74.37 10.43 76.00 8.00
C 76.39 7.42 76.51 6.57 77.00 6.00
C 77.00 6.00 76.26 5.75 76.00 6.00
C 75.29 6.91 74.96 7.27 74.00 8.00 Z"/>
</g>
<g fill="#E1E1E3" fill-opacity="0.25" stroke="None">
<path d="
M 37.00 10.00 
C 38.89 9.89 38.89 8.36 40.00 8.00
C 37.22 8.40 38.42 9.03 37.00 10.00 Z"/>
</g>
<g fill="#89898F" fill-opacity="0.78" stroke="None">
<path d="
M 37.00 10.00 
C 36.50 10.03 35.50 9.98 35.00 10.00
C 33.06 11.36 29.68 12.98 28.00 15.00
C 27.66 15.40 27.32 16.74 27.00 17.00
C 31.79 14.04 41.82 11.82 45.00 8.00
C 43.47 8.43 41.57 7.77 40.00 8.00
C 38.89 8.36 38.89 9.89 37.00 10.00 Z"/>
</g>
<g fill="#27252C" fill-opacity="1.00" stroke="None">
<path d="
M 22.00 23.00 
C 21.46 24.58 19.96 25.01 19.00 26.00
C 16.87 28.79 16.93 29.80 16.00 33.00
C 16.75 32.39 19.03 32.35 20.00 32.00
C 21.19 36.87 28.75 40.34 27.00 45.00
C 27.05 45.50 27.00 46.00 27.00 46.00
C 27.90 46.73 28.33 45.59 29.00 47.00
C 31.91 43.24 37.10 39.41 41.00 37.00
C 41.40 36.57 41.64 35.32 42.00 35.00
C 39.51 36.45 37.36 38.26 35.00 40.00
C 31.58 23.85 48.09 10.26 64.00 13.00
C 65.32 7.79 61.95 7.92 58.00 8.00
C 44.61 11.90 32.29 12.51 22.00 23.00 Z"/>
</g>
<g fill="#919096" fill-opacity="0.94" stroke="None">
<path d="
M 70.00 12.00 
C 71.65 10.85 72.59 9.39 74.00 8.00
C 72.52 9.13 70.89 10.18 70.00 12.00 Z"/>
</g>
<g fill="#AEADB0" fill-opacity="0.35" stroke="None">
<path d="
M 28.00 15.00 
C 29.68 12.98 33.06 11.36 35.00 10.00
C 30.27 10.15 30.72 12.37 28.00 15.00 Z"/>
</g>
<g fill="#7C7B83" fill-opacity="0.87" stroke="None">
<path d="
M 65.00 17.00 
C 65.12 16.41 67.63 15.44 68.00 15.00
C 68.02 14.89 69.02 12.99 69.00 13.00
C 67.83 13.57 65.20 15.51 65.00 17.00 Z"/>
</g>
<g fill="#7F7E81" fill-opacity="0.13" stroke="None">
<path d="
M 68.00 15.00 
C 67.91 15.48 68.00 16.00 68.00 16.00
C 68.95 15.45 70.55 14.48 70.00 13.00
C 70.00 13.00 69.40 12.80 69.00 13.00
C 69.02 12.99 68.02 14.89 68.00 15.00 Z"/>
</g>
<g fill="#797979" fill-opacity="0.12" stroke="None">
<path d="
M 25.00 17.00 
C 24.83 17.43 25.00 18.00 25.00 18.00
C 25.27 17.75 26.00 18.00 26.00 18.00
C 26.19 17.68 26.68 17.20 27.00 17.00
C 27.32 16.74 27.66 15.40 28.00 15.00
C 27.15 15.82 25.58 15.51 25.00 17.00 Z"/>
</g>
<g fill="#929199" fill-opacity="0.59" stroke="None">
<path d="
M 65.00 17.00 
C 64.83 18.29 65.55 18.27 66.00 19.00
C 65.94 17.46 66.25 17.93 67.00 17.00
C 67.23 16.72 67.88 16.26 68.00 16.00
C 68.00 16.00 67.91 15.48 68.00 15.00
C 67.63 15.44 65.12 16.41 65.00 17.00 Z"/>
</g>
<g fill="#CECECE" fill-opacity="0.26" stroke="None">
<path d="
M 20.00 23.00 
C 20.57 22.51 21.40 22.38 22.00 22.00
C 22.31 21.80 22.79 21.31 23.00 21.00
C 23.66 20.01 24.60 19.10 25.00 18.00
C 25.00 18.00 24.83 17.43 25.00 17.00
C 22.92 18.87 21.40 20.29 20.00 23.00 Z"/>
</g>
<g fill="#C6C6C9" fill-opacity="0.37" stroke="None">
<path d="
M 66.00 19.00 
C 67.07 20.76 65.87 20.29 68.00 21.00
C 68.20 19.46 67.02 17.77 67.00 17.00
C 66.25 17.93 65.94 17.46 66.00 19.00 Z"/>
</g>
<g fill="#979798" fill-opacity="0.72" stroke="None">
<path d="
M 23.00 21.00 
C 24.17 20.01 25.13 19.43 26.00 18.00
C 26.00 18.00 25.27 17.75 25.00 18.00
C 24.60 19.10 23.66 20.01 23.00 21.00 Z"/>
</g>
<g fill="#F4F3F3" fill-opacity="0.24" stroke="None">
<path d="
M 0.00 47.00 
C 1.44 48.69 1.35 52.59 1.00 55.00
C 1.22 57.25 4.32 64.38 0.00 65.00
L 0.00 67.00
C 2.04 65.66 4.59 65.91 7.00 66.00
C 6.78 65.87 7.00 65.00 7.00 65.00
C 5.44 64.17 4.96 63.57 6.00 62.00
C 6.23 61.65 6.00 61.00 6.00 61.00
C 4.83 59.79 4.77 57.84 5.00 56.00
C 5.21 54.31 8.18 53.23 7.00 51.00
C 4.40 54.21 3.42 53.14 5.00 48.00
C -2.63 42.47 6.11 26.19 0.00 20.00
L 0.00 47.00 Z"/>
</g>
<g fill="#838283" fill-opacity="0.62" stroke="None">
<path d="
M 20.00 23.00 
C 19.14 23.74 18.91 23.63 19.00 25.00
C 19.03 25.50 19.00 26.00 19.00 26.00
C 19.96 25.01 21.46 24.58 22.00 23.00
C 22.00 23.00 21.81 22.41 22.00 22.00
C 21.40 22.38 20.57 22.51 20.00 23.00 Z"/>
</g>
<g fill="#99979E" fill-opacity="0.62" stroke="None">
<path d="
M 69.00 24.00 
C 68.82 23.58 69.23 22.16 69.00 22.00
C 69.00 22.00 68.25 22.25 68.00 22.00
C 66.91 23.06 67.73 23.23 69.00 24.00 Z"/>
</g>
<g fill="#C8C7C6" fill-opacity="0.15" stroke="None">
<path d="
M 69.00 24.00 
C 69.32 24.19 69.79 24.69 70.00 25.00
C 70.21 25.31 70.88 25.74 71.00 26.00
C 70.91 24.66 70.24 22.59 69.00 22.00
C 69.23 22.16 68.82 23.58 69.00 24.00 Z"/>
</g>
<g fill="#EFDEA7" fill-opacity="0.63" stroke="None">
<path d="
M 14.00 30.00 
C 13.91 30.77 13.15 31.19 13.00 32.00
C 15.10 29.99 17.09 27.80 18.00 25.00
C 15.26 23.93 15.21 27.29 13.00 27.00
C 13.31 28.17 14.16 28.68 14.00 30.00 Z"/>
</g>
<g fill="#A9914D" fill-opacity="0.96" stroke="None">
<path d="
M 13.00 32.00 
C 12.91 32.48 13.00 33.00 13.00 33.00
C 13.00 33.50 13.00 34.00 13.00 34.00
C 14.19 35.81 13.14 41.36 11.00 43.00
C 10.76 43.18 11.00 44.00 11.00 44.00
C 12.67 43.42 12.27 43.40 14.00 44.00
C 13.75 43.75 14.00 43.00 14.00 43.00
C 13.75 39.33 15.13 35.98 16.00 33.00
C 16.93 29.80 16.87 28.79 19.00 26.00
C 19.00 26.00 19.03 25.50 19.00 25.00
C 19.00 25.00 18.50 24.97 18.00 25.00
C 17.09 27.80 15.10 29.99 13.00 32.00 Z"/>
</g>
<g fill="#E7D692" fill-opacity="0.74" stroke="None">
<path d="
M 69.00 26.00 
C 68.99 26.37 70.73 27.67 71.00 28.00
C 70.93 27.51 71.00 27.00 71.00 27.00
C 71.00 27.00 71.03 26.50 71.00 26.00
C 70.88 25.74 70.21 25.31 70.00 25.00
C 69.96 25.22 69.26 25.88 69.00 26.00 Z"/>
</g>
<g fill="#998C57" fill-opacity="1.00" stroke="None">
<path d="
M 58.00 28.00 
C 59.53 27.52 62.83 26.20 64.00 26.00
C 61.03 26.17 60.27 27.00 58.00 28.00 Z"/>
</g>
<g fill="#F1CC4C" fill-opacity="0.96" stroke="None">
<path d="
M 58.00 28.00 
C 55.73 29.00 53.20 29.11 51.00 30.00
C 50.41 30.33 49.72 31.55 49.00 32.00
C 46.83 33.91 44.53 36.30 42.00 38.00
C 41.43 40.19 44.98 39.83 43.00 42.00
C 47.32 38.79 55.59 32.74 61.00 33.00
C 61.50 33.02 62.50 33.00 63.00 33.00
C 65.82 31.80 67.44 32.69 70.00 33.00
C 71.31 33.54 72.44 34.41 74.00 34.00
C 73.66 32.92 73.60 30.90 73.00 30.00
C 72.43 29.14 71.20 29.34 71.00 28.00
C 70.73 27.67 68.99 26.37 69.00 26.00
C 67.80 26.54 65.33 25.92 64.00 26.00
C 62.83 26.20 59.53 27.52 58.00 28.00 Z"/>
</g>
<g fill="#FEF3C9" fill-opacity="0.46" stroke="None">
<path d="
M 71.00 28.00 
C 71.20 29.34 72.43 29.14 73.00 30.00
C 72.50 27.91 73.37 27.41 71.00 27.00
C 71.00 27.00 70.93 27.51 71.00 28.00 Z"/>
</g>
<g fill="#C9C7BD" fill-opacity="0.28" stroke="None">
<path d="
M 10.00 34.00 
C 10.95 33.32 12.17 33.52 13.00 33.00
C 13.00 33.00 12.91 32.48 13.00 32.00
C 13.15 31.19 13.91 30.77 14.00 30.00
C 13.57 30.71 10.94 32.63 10.00 34.00 Z"/>
</g>
<g fill="#73694D" fill-opacity="1.00" stroke="None">
<path d="
M 47.00 33.00 
C 47.43 32.92 48.65 32.22 49.00 32.00
C 49.72 31.55 50.41 30.33 51.00 30.00
C 49.20 30.73 48.13 31.46 47.00 33.00 Z"/>
</g>
<g fill="#535059" fill-opacity="0.98" stroke="None">
<path d="
M 16.00 33.00 
C 15.13 35.98 13.75 39.33 14.00 43.00
C 14.25 42.75 15.00 43.00 15.00 43.00
C 15.82 42.45 15.93 42.41 17.00 42.00
C 18.26 41.52 19.13 40.76 21.00 41.00
C 22.63 40.71 22.19 39.74 24.00 41.00
C 25.06 41.73 25.19 43.02 26.00 44.00
C 26.22 44.26 26.97 44.65 27.00 45.00
C 28.75 40.34 21.19 36.87 20.00 32.00
C 19.03 32.35 16.75 32.39 16.00 33.00 Z"/>
</g>
<g fill="#DAA12A" fill-opacity="0.99" stroke="None">
<path d="
M 47.00 33.00 
C 47.00 33.00 46.15 32.77 46.00 33.00
C 44.56 35.21 43.11 35.70 41.00 37.00
C 37.10 39.41 31.91 43.24 29.00 47.00
C 29.19 47.41 29.00 48.50 29.00 49.00
C 29.00 49.00 28.91 49.52 29.00 50.00
C 30.97 51.38 33.49 54.90 36.00 55.00
C 36.17 54.67 36.96 54.22 37.00 54.00
C 37.16 53.22 37.82 52.82 38.00 52.00
C 38.07 51.68 37.77 49.12 38.00 49.00
C 37.31 47.02 35.94 49.81 38.00 47.00
C 38.79 45.14 41.34 43.23 43.00 42.00
C 44.98 39.83 41.43 40.19 42.00 38.00
C 44.53 36.30 46.83 33.91 49.00 32.00
C 48.65 32.22 47.43 32.92 47.00 33.00 Z"/>
</g>
<g fill="#BC8530" fill-opacity="0.43" stroke="None">
<path d="
M 63.00 33.00 
C 65.08 33.00 68.00 32.46 70.00 33.00
C 67.44 32.69 65.82 31.80 63.00 33.00 Z"/>
</g>
<g fill="#7A7A7C" fill-opacity="0.61" stroke="None">
<path d="
M 10.00 34.00 
C 9.57 34.62 8.51 35.42 8.00 36.00
C 7.71 36.55 7.75 38.59 7.00 39.00
C 9.27 37.89 10.98 35.41 13.00 34.00
C 13.00 34.00 13.00 33.50 13.00 33.00
C 12.17 33.52 10.95 33.32 10.00 34.00 Z"/>
</g>
<g fill="#877239" fill-opacity="1.00" stroke="None">
<path d="
M 42.00 35.00 
C 41.64 35.32 41.40 36.57 41.00 37.00
C 43.11 35.70 44.56 35.21 46.00 33.00
C 45.17 34.18 43.05 34.42 42.00 35.00 Z"/>
</g>
<g fill="#BDB742" fill-opacity="0.96" stroke="None">
<path d="
M 43.00 42.00 
C 41.34 43.23 38.79 45.14 38.00 47.00
C 37.82 47.42 38.20 48.90 38.00 49.00
C 37.77 49.12 38.07 51.68 38.00 52.00
C 38.42 52.49 40.46 51.61 41.00 52.00
C 40.32 61.09 43.75 68.92 49.25 75.75 C 54.75 82.59 63.40 84.71 69.00 89.00
C 64.03 92.71 57.88 85.67 54.00 90.00
C 80.76 103.68 100.10 75.28 89.00 51.00
C 86.29 47.20 79.65 42.91 76.00 39.00
C 72.32 36.55 64.92 33.27 61.00 33.00
C 55.59 32.74 47.32 38.79 43.00 42.00
M 86.00 58.00 
C 86.08 58.49 86.01 59.50 86.00 60.00
C 87.55 63.66 86.96 67.96 86.00 72.00
C 85.50 55.31 69.24 36.80 51.00 42.00
C 51.85 40.08 54.05 39.22 56.00 39.00
C 56.50 38.96 57.50 39.00 58.00 39.00
C 69.17 34.25 84.06 46.82 86.00 58.00
M 73.00 56.00 
C 70.03 58.97 64.54 52.50 60.00 54.00
C 47.43 60.76 71.24 79.86 73.00 63.00
C 77.82 62.39 78.45 68.57 79.00 72.00
C 72.86 70.31 61.25 78.87 57.08 72.92 C 52.92 66.96 52.54 58.60 50.00 52.00
C 57.77 50.90 74.62 42.87 73.00 56.00 Z"/>
</g>
<g fill="#DFE1AF" fill-opacity="0.76" stroke="None">
<path d="
M 76.00 39.00 
C 75.58 38.55 75.11 37.60 75.00 37.00
C 74.91 36.52 75.00 36.00 75.00 36.00
C 72.89 35.57 71.42 33.38 70.00 33.00
C 68.00 32.46 65.08 33.00 63.00 33.00
C 62.50 33.00 61.50 33.02 61.00 33.00
C 64.92 33.27 72.32 36.55 76.00 39.00 Z"/>
</g>
<g fill="#3E3D44" fill-opacity="0.98" stroke="None">
<path d="
M 7.00 39.00 
C 6.60 39.20 6.00 39.00 6.00 39.00
C 5.82 40.95 4.46 41.30 4.00 43.00
C 4.27 45.03 4.96 45.00 7.00 45.00
C 8.22 44.87 8.51 42.23 11.00 43.00
C 11.12 39.86 12.48 37.07 13.00 34.00
C 10.98 35.41 9.27 37.89 7.00 39.00 Z"/>
</g>
<g fill="#7D6E45" fill-opacity="1.00" stroke="None">
<path d="
M 11.00 43.00 
C 13.14 41.36 14.19 35.81 13.00 34.00
C 12.48 37.07 11.12 39.86 11.00 43.00 Z"/>
</g>
<g fill="#727272" fill-opacity="0.05" stroke="None">
<path d="
M 6.00 38.00 
C 6.00 38.00 6.05 38.50 6.00 39.00
C 6.00 39.00 6.60 39.20 7.00 39.00
C 7.75 38.59 7.71 36.55 8.00 36.00
C 7.46 36.61 6.37 37.30 6.00 38.00 Z"/>
</g>
<g fill="#F1F2E0" fill-opacity="0.06" stroke="None">
<path d="
M 75.00 37.00 
C 75.72 37.79 77.13 38.46 78.00 39.00
C 77.18 38.27 77.15 35.85 75.00 36.00
C 75.00 36.00 74.91 36.52 75.00 37.00 Z"/>
</g>
<g fill="#E8E5B1" fill-opacity="0.47" stroke="None">
<path d="
M 76.00 39.00 
C 79.65 42.91 86.29 47.20 89.00 51.00
C 86.80 46.20 82.16 41.58 78.00 39.00
C 77.13 38.46 75.72 37.79 75.00 37.00
C 75.11 37.60 75.58 38.55 76.00 39.00 Z"/>
</g>
<g fill="#90860B" fill-opacity="1.00" stroke="None">
<path d="
M 58.00 39.00 
C 71.36 39.00 80.39 46.55 86.00 58.00
C 84.06 46.82 69.17 34.25 58.00 39.00 Z"/>
</g>
<g fill="#938814" fill-opacity="1.00" stroke="None">
<path d="
M 86.00 60.00 
C 85.98 61.28 86.58 63.49 85.00 64.00
C 84.31 49.33 69.26 39.55 56.00 39.00
C 54.05 39.22 51.85 40.08 51.00 42.00
C 69.24 36.80 85.50 55.31 86.00 72.00
C 86.96 67.96 87.55 63.66 86.00 60.00 Z"/>
</g>
<g fill="#7A6E04" fill-opacity="1.00" stroke="None">
<path d="
M 86.00 60.00 
C 86.01 59.50 86.08 58.49 86.00 58.00
C 80.39 46.55 71.36 39.00 58.00 39.00
C 57.50 39.00 56.50 38.96 56.00 39.00
C 69.26 39.55 84.31 49.33 85.00 64.00
C 86.58 63.49 85.98 61.28 86.00 60.00 Z"/>
</g>
<g fill="#6D6B76" fill-opacity="0.66" stroke="None">
<path d="
M 21.00 41.00 
C 21.49 41.06 22.00 41.00 22.00 41.00
C 22.50 41.00 23.64 40.78 24.00 41.00
C 22.19 39.74 22.63 40.71 21.00 41.00 Z"/>
</g>
<g fill="#BEBAC3" fill-opacity="0.60" stroke="None">
<path d="
M 17.00 42.00 
C 17.00 41.99 18.03 42.98 18.00 43.00
C 19.50 43.30 22.55 43.25 22.00 41.00
C 22.00 41.00 21.49 41.06 21.00 41.00
C 19.13 40.76 18.26 41.52 17.00 42.00 Z"/>
</g>
<g fill="#A9A7A9" fill-opacity="0.20" stroke="None">
<path d="
M 25.00 45.00 
C 25.09 44.75 25.78 44.04 26.00 44.00
C 25.19 43.02 25.06 41.73 24.00 41.00
C 24.39 41.25 24.75 44.49 25.00 45.00 Z"/>
</g>
<g fill="#807E87" fill-opacity="0.72" stroke="None">
<path d="
M 15.00 43.00 
C 15.50 43.00 16.50 43.00 17.00 43.00
C 17.00 43.00 17.52 42.90 18.00 43.00
C 18.03 42.98 17.00 41.99 17.00 42.00
C 15.93 42.41 15.82 42.45 15.00 43.00 Z"/>
</g>
<g fill="#A8A6A6" fill-opacity="1.00" stroke="None">
<path d="
M 9.00 46.00 
C 9.11 45.66 10.72 44.15 11.00 44.00
C 10.01 44.21 7.91 45.00 7.00 45.00
C 4.96 45.00 4.27 45.03 4.00 43.00
C 3.33 45.47 5.42 47.21 9.00 46.00 Z"/>
</g>
<g fill="#737179" fill-opacity="1.00" stroke="None">
<path d="
M 7.00 45.00 
C 7.91 45.00 10.01 44.21 11.00 44.00
C 11.00 44.00 10.76 43.18 11.00 43.00
C 8.51 42.23 8.22 44.87 7.00 45.00 Z"/>
</g>
<g fill="#F5C64D" fill-opacity="0.97" stroke="None">
<path d="
M 11.00 44.00 
C 10.72 44.15 9.11 45.66 9.00 46.00
C 8.31 48.10 10.06 49.67 9.00 52.00
C 9.09 52.48 9.08 53.51 9.00 54.00
C 8.59 56.37 7.26 60.29 6.00 62.00
C 4.96 63.57 5.44 64.17 7.00 65.00
C 11.10 65.44 13.05 61.93 17.00 61.00
C 17.00 60.50 17.25 59.26 17.00 59.00
C 15.41 57.32 14.03 54.53 14.00 52.00
C 11.65 50.27 15.79 46.85 14.00 44.00
C 12.27 43.40 12.67 43.42 11.00 44.00
M 12.00 57.00 
C 13.21 63.27 9.10 60.91 12.00 57.00 Z"/>
</g>
<g fill="#807B7C" fill-opacity="0.12" stroke="None">
<path d="
M 14.00 44.00 
C 14.25 44.25 15.00 44.00 15.00 44.00
C 16.31 44.08 16.23 43.51 17.00 43.00
C 16.50 43.00 15.50 43.00 15.00 43.00
C 15.00 43.00 14.25 42.75 14.00 43.00
C 14.00 43.00 13.75 43.75 14.00 44.00 Z"/>
</g>
<g fill="#F9D968" fill-opacity="0.33" stroke="None">
<path d="
M 14.00 52.00 
C 14.00 51.84 14.83 51.33 15.00 51.00
C 15.98 49.06 16.56 45.86 15.00 44.00
C 15.00 44.00 14.25 44.25 14.00 44.00
C 15.79 46.85 11.65 50.27 14.00 52.00 Z"/>
</g>
<g fill="#E4E2E4" fill-opacity="0.20" stroke="None">
<path d="
M 25.00 45.00 
C 25.18 45.36 26.26 47.37 27.00 47.00
C 27.06 46.51 27.00 46.00 27.00 46.00
C 27.00 46.00 27.05 45.50 27.00 45.00
C 26.97 44.65 26.22 44.26 26.00 44.00
C 25.78 44.04 25.09 44.75 25.00 45.00 Z"/>
</g>
<g fill="#9D9B9F" fill-opacity="0.52" stroke="None">
<path d="
M 27.00 47.00 
C 26.78 48.92 27.76 48.59 29.00 49.00
C 29.00 48.50 29.19 47.41 29.00 47.00
C 28.33 45.59 27.90 46.73 27.00 46.00
C 27.00 46.00 27.06 46.51 27.00 47.00 Z"/>
</g>
<g fill="#FFFFFF" fill-opacity="0.49" stroke="None">
<path d="
M 0.00 56.00 
C 0.34 55.84 0.95 55.35 1.00 55.00
C 1.35 52.59 1.44 48.69 0.00 47.00
L 0.00 56.00 Z"/>
</g>
<g fill="#FEFDF9" fill-opacity="0.39" stroke="None">
<path d="
M 5.00 48.00 
C 3.42 53.14 4.40 54.21 7.00 51.00
C 8.18 53.23 5.21 54.31 5.00 56.00
C 5.14 55.81 7.57 55.40 8.00 55.00
C 8.21 54.70 8.89 54.26 9.00 54.00
C 9.08 53.51 9.09 52.48 9.00 52.00
C 8.28 47.95 6.41 49.02 5.00 48.00 Z"/>
</g>
<g fill="#8B6B32" fill-opacity="1.00" stroke="None">
<path d="
M 38.00 49.00 
C 38.20 48.90 37.82 47.42 38.00 47.00
C 35.94 49.81 37.31 47.02 38.00 49.00 Z"/>
</g>
<g fill="#464949" fill-opacity="1.00" stroke="None">
<path d="
M 60.00 54.00 
C 65.03 51.30 68.96 58.11 73.00 56.00
C 74.62 42.87 57.77 50.90 50.00 52.00
C 52.54 58.60 52.92 66.96 57.08 72.92 C 61.25 78.87 72.86 70.31 79.00 72.00
C 78.45 68.57 77.82 62.39 73.00 63.00
C 71.24 79.86 47.43 60.76 60.00 54.00 Z"/>
</g>
<g fill="#ECDAA4" fill-opacity="0.48" stroke="None">
<path d="
M 34.00 59.00 
C 34.16 58.21 35.46 56.02 36.00 55.00
C 33.49 54.90 30.97 51.38 29.00 50.00
C 29.86 54.38 33.03 55.22 34.00 59.00 Z"/>
</g>
<g fill="#FCEFC7" fill-opacity="0.48" stroke="None">
<path d="
M 14.00 52.00 
C 14.03 54.53 15.41 57.32 17.00 59.00
C 16.52 56.97 17.41 52.00 15.00 51.00
C 14.83 51.33 14.00 51.84 14.00 52.00 Z"/>
</g>
<g fill="#A9A222" fill-opacity="0.92" stroke="None">
<path d="
M 37.00 54.00 
C 36.38 56.90 35.16 62.71 35.00 65.00
C 37.67 75.81 43.70 84.73 54.00 90.00
C 57.88 85.67 64.03 92.71 69.00 89.00
C 63.40 84.71 54.75 82.59 49.25 75.75 C 43.75 68.92 40.32 61.09 41.00 52.00
C 40.46 51.61 38.42 52.49 38.00 52.00
C 37.82 52.82 37.16 53.22 37.00 54.00 Z"/>
</g>
<g fill="#59571F" fill-opacity="1.00" stroke="None">
<path d="
M 60.00 54.00 
C 64.54 52.50 70.03 58.97 73.00 56.00
C 68.96 58.11 65.03 51.30 60.00 54.00 Z"/>
</g>
<g fill="#F8E3A9" fill-opacity="1.00" stroke="None">
<path d="
M 8.00 55.00 
C 6.74 56.82 6.04 58.77 6.00 61.00
C 6.00 61.00 6.23 61.65 6.00 62.00
C 7.26 60.29 8.59 56.37 9.00 54.00
C 8.89 54.26 8.21 54.70 8.00 55.00 Z"/>
</g>
<g fill="#CDBF67" fill-opacity="0.76" stroke="None">
<path d="
M 36.00 55.00 
C 35.46 56.02 34.16 58.21 34.00 59.00
C 33.52 61.34 34.59 63.32 35.00 65.00
C 35.16 62.71 36.38 56.90 37.00 54.00
C 36.96 54.22 36.17 54.67 36.00 55.00 Z"/>
</g>
<g fill="#FFFFFF" fill-opacity="0.64" stroke="None">
<path d="
M 0.00 56.00 
L 0.00 65.00
C 4.32 64.38 1.22 57.25 1.00 55.00
C 0.95 55.35 0.34 55.84 0.00 56.00 Z"/>
</g>
<g fill="#FDFAF2" fill-opacity="1.00" stroke="None">
<path d="
M 5.00 56.00 
C 4.77 57.84 4.83 59.79 6.00 61.00
C 6.04 58.77 6.74 56.82 8.00 55.00
C 7.57 55.40 5.14 55.81 5.00 56.00 Z"/>
</g>
<g fill="#EA8011" fill-opacity="1.00" stroke="None">
<path d="
M 12.00 57.00 
C 9.10 60.91 13.21 63.27 12.00 57.00 Z"/>
</g>
<g fill="#FDF9F2" fill-opacity="0.11" stroke="None">
<path d="
M 17.00 61.00 
C 17.00 61.50 17.25 62.75 17.00 63.00
C 21.49 61.75 17.23 59.97 17.00 59.00
C 17.25 59.26 17.00 60.50 17.00 61.00 Z"/>
</g>
<g fill="#F0D193" fill-opacity="0.56" stroke="None">
<path d="
M 7.00 65.00 
C 7.00 65.00 6.78 65.87 7.00 66.00
C 7.98 66.58 10.83 67.26 12.00 67.00
C 12.92 64.41 12.32 61.92 15.00 63.00
C 15.43 63.17 16.75 63.25 17.00 63.00
C 17.25 62.75 17.00 61.50 17.00 61.00
C 13.05 61.93 11.10 65.44 7.00 65.00 Z"/>
</g>
<g fill="#DACEC8" fill-opacity="0.07" stroke="None">
<path d="
M 12.00 67.00 
C 14.90 66.35 13.22 64.82 15.00 63.00
C 12.32 61.92 12.92 64.41 12.00 67.00 Z"/>
</g>
<g fill="#FFFFFF" fill-opacity="0.37" stroke="None">
<path d="
M 4.00 89.00 
C 4.63 89.10 7.46 90.98 8.00 91.00
C 11.77 92.07 12.65 89.10 12.00 86.00
C 9.14 85.80 5.20 88.64 4.00 89.00 Z"/>
</g>
<g fill="#FFFFFF" fill-opacity="0.22" stroke="None">
<path d="
M 0.00 92.00 
C 2.80 92.25 5.50 91.84 8.00 91.00
C 7.46 90.98 4.63 89.10 4.00 89.00
C 2.70 88.79 1.31 89.16 0.00 89.00
L 0.00 92.00 Z"/>
</g>
</svg>